<svg width="636" height="595" viewBox="0 0 636 595" fill="none" xmlns="http://www.w3.org/2000/svg">
<path fill-rule="evenodd" clip-rule="evenodd" d="M302.119 41.188C255.426 121.546 255.426 221.76 302.119 302.119C221.76 255.426 121.546 255.426 41.1881 302.119C87.8807 221.76 87.8807 121.546 41.1881 41.188C121.546 87.8807 221.76 87.8807 302.119 41.188ZM434.636 370.773C465.771 316.498 524.202 282.763 586.773 282.937C532.498 251.801 498.763 193.371 498.937 130.799C467.801 185.075 409.371 218.809 346.799 218.636C401.075 249.771 434.809 308.202 434.636 370.773ZM363.587 509.55C387.289 495.778 416.848 495.778 440.55 509.55C426.778 485.848 426.778 456.289 440.55 432.587C416.848 446.359 387.289 446.359 363.587 432.587C377.359 456.289 377.359 485.848 363.587 509.55ZM550.96 426.77C574.061 450 604.297 464.108 636 467.576V587.361C601.503 561.541 556.407 552.543 514.195 563.979C550.071 528.302 564.191 475.605 550.96 426.77Z" fill="#B0C3FF"/>
</svg>
